<svg width="32" height="50" viewBox="0 0 32 50" fill="none" xmlns="http://www.w3.org/2000/svg">
<path fill-rule="evenodd" clip-rule="evenodd" d="M26.326 16.11V11.706L19.039 11.707V8.776H26.194L26.187 8.718C25.422 3.823 21.187 0.0780029 16.078 0.0780029C10.963 0.0780029 6.72396 3.832 5.95896 8.792H13.097V11.755H5.86096V16.126H13.097V19.057H5.86096V23.461H13.097V26.359H5.92596L5.93196 26.414C6.64496 31.369 10.908 35.177 16.06 35.177C21.212 35.177 25.475 31.369 26.194 26.359H19.056V23.412H26.309V19.024H19.04V16.11H26.326ZM4.371 47.102V50L27.831 49.968V47.021H17.582V40.931L17.645 40.926C21.696 40.55 25.306 38.656 27.913 35.806L27.905 35.815C30.531 33.003 32.138 29.228 32.138 25.078V24.967H29.24V24.973C29.177 32.004 23.627 37.725 16.634 38.064L16.667 38.063C16.432 38.075 16.196 38.082 15.959 38.082C13.131 38.082 10.52 37.153 8.448 35.608L8.407 35.581C5.074 33.216 2.895 29.331 2.881 24.934H0V24.938C0.038 33.272 6.391 40.113 14.587 40.93V47.102H4.371Z" fill="#BDAE82"/>
</svg>
