<svg width="62" height="52" viewBox="0 0 62 52" fill="none" xmlns="http://www.w3.org/2000/svg">
<path fill-rule="evenodd" clip-rule="evenodd" d="M19.532 7.16506H42.279C42.2627 7.07382 42.254 6.99016 42.2457 6.91055C42.2362 6.81916 42.2272 6.73311 42.208 6.64706L42.1711 6.49938L42.1708 6.49852L42.1708 6.49847C41.8613 5.26107 41.5519 4.02453 41.225 2.78706L41.224 2.77606C41.085 1.76606 40.219 0.987064 39.17 0.987064C39.089 0.987064 39.008 0.992064 38.938 1.00006L23.1073 1.00006C22.9836 0.977398 22.8552 0.966064 22.725 0.966064C21.582 0.966064 20.646 1.85306 20.568 2.98306C20.3482 3.83039 20.1416 4.67772 19.932 5.53766L19.9319 5.53774C19.8011 6.07425 19.6692 6.61567 19.532 7.16506ZM30.897 51.036H6.505C6.49207 51.036 6.47823 51.0363 6.4638 51.0365L6.44473 51.0368L6.415 51.037C2.872 51.037 0 48.165 0 44.622C0 44.59 0 44.559 0.001 44.527V44.532C0.0723333 35.0967 0.0723333 25.6554 0.001 16.208V16.172C0.001 12.619 2.881 9.73903 6.434 9.73903H55.415C55.497 9.73503 55.593 9.73303 55.69 9.73303C59.085 9.73303 61.837 12.485 61.837 15.88C61.837 15.983 61.834 16.085 61.829 16.186L61.83 16.172V44.532C61.837 44.641 61.841 44.768 61.841 44.897C61.841 48.292 59.089 51.044 55.694 51.044C55.59 51.044 55.486 51.041 55.383 51.036L55.398 51.037L30.897 51.036ZM30.9302 44.8712L30.9623 44.8715C30.9876 44.8718 31.0139 44.872 31.04 44.872C39.014 44.872 45.479 38.407 45.479 30.433C45.479 24.8058 42.2594 19.9301 37.5619 17.5476C42.1822 19.9557 45.337 24.7897 45.337 30.36C45.337 30.41 45.337 30.46 45.336 30.511V30.503C45.215 38.412 38.785 44.78 30.863 44.799H30.861L30.8445 44.799L30.849 44.799H30.861L30.897 44.871L30.9302 44.8712ZM12.384 20.049C12.354 19.1877 11.8104 18.4586 11.0508 18.1584C11.8108 18.4593 12.3535 19.1876 12.383 20.046V20.05L12.384 20.049ZM8.291 20.067C8.291 18.941 9.19633 18.0267 10.3188 18.0121L10.313 18.012H10.311C9.176 18.012 8.256 18.932 8.256 20.067C8.256 21.202 9.176 22.122 10.311 22.122L10.3217 22.1218C9.19787 22.1088 8.291 21.1938 8.291 20.067ZM12.384 20.051C12.3809 20.2284 12.3559 20.4004 12.3116 20.5644C12.356 20.3998 12.381 20.2271 12.384 20.0491V20.051ZM30.861 40.671C36.556 40.671 41.172 36.055 41.172 30.36C41.172 24.665 36.556 20.049 30.861 20.049C25.179 20.049 20.57 24.645 20.55 30.322V30.324V30.396C20.55 36.071 25.15 40.671 30.825 40.671H30.861ZM30.938 40.67C30.9136 40.6707 30.8888 40.6709 30.8638 40.671L30.932 40.67H30.938ZM39.152 30.1691C39.019 25.8011 35.507 22.2841 31.129 22.1401L31.1279 22.1395C31.1302 22.1397 31.1326 22.1399 31.135 22.1401L31.127 22.1391L31.1279 22.1395C31.0682 22.1349 31.0075 22.1321 30.946 22.1321C29.836 22.1321 28.929 23.0051 28.875 24.1061V24.1021C28.874 24.1341 28.873 24.1651 28.873 24.1971C28.873 25.3221 29.785 26.2341 30.91 26.2341C30.9204 26.2341 30.9305 26.2338 30.9403 26.2335C30.9492 26.2333 30.9578 26.2331 30.966 26.2331H30.972C33.215 26.2921 35.02 28.1091 35.059 30.3611C35.059 31.5061 35.987 32.4341 37.132 32.4341H37.15H37.156C38.272 32.3681 39.156 31.4431 39.156 30.3111C39.156 30.2651 39.154 30.2201 39.152 30.1821V30.1691Z" fill="#CCBA8D"/>
</svg>
