<svg width="66" height="50" viewBox="0 0 66 50" fill="none" xmlns="http://www.w3.org/2000/svg">
<path fill-rule="evenodd" clip-rule="evenodd" d="M-1.41598e-05 1.49692V48.5029L-0.00201416 48.5049L0.00498584 48.5209C0.407986 49.3869 1.28699 49.9879 2.30599 49.9879C2.42599 49.9879 2.54299 49.9789 2.64499 49.9649H64.087C64.117 49.9659 64.147 49.9669 64.177 49.9669C65.276 49.9669 66.167 49.0759 66.167 47.9769C66.167 47.8989 66.163 47.8219 66.155 47.7559V30.8339V2.42892L66.154 2.43692C66.16 2.37192 66.163 2.30492 66.163 2.23792C66.163 0.99792 65.158 -0.00708008 63.918 -0.00708008C63.851 -0.00708008 63.784 -0.00408008 63.727 0.000919922H2.39899C2.33999 -0.00408008 2.27999 -0.00608008 2.21999 -0.00608008C1.21999 -0.00608008 0.361986 0.60892 -1.41598e-05 1.49692ZM4.12499 4.14392H62.066L62.051 32.0749L61.412 31.6549L44.07 19.2049C43.673 18.8069 43.125 18.5609 42.518 18.5609C41.911 18.5609 41.363 18.8069 40.966 19.2049L30.798 26.5069L30.469 26.7629L31.035 27.1829C33.469 28.9843 35.9577 30.7793 38.501 32.5679L38.511 32.5729C39.141 32.9259 39.566 33.5999 39.566 34.3729C39.566 34.5759 39.537 34.7709 39.486 34.9409L39.482 34.9549C39.237 35.7759 38.476 36.3739 37.575 36.3739C37.117 36.3739 36.696 36.2189 36.364 35.9629C34.5528 34.6946 32.7407 33.3899 30.9295 32.0858L30.888 32.0559L19.095 23.6039C18.698 23.2059 18.15 22.9599 17.543 22.9599C16.936 22.9599 16.388 23.2059 15.991 23.6039L4.76399 31.6539L4.12499 32.0919V4.14392ZM32.438 14.822C32.438 11.798 29.987 9.34597 26.962 9.34597L26.963 9.34497H26.955C24.001 9.42597 21.632 11.846 21.632 14.819C21.5843 15.1104 21.559 15.4084 21.559 15.713C21.559 18.737 24.011 21.189 27.035 21.189C30.059 21.189 32.511 18.738 32.511 15.713C32.511 15.399 32.484 15.09 32.438 14.822Z" fill="#CCBA8D"/>
</svg>
